<svg id="svg" version="1.1" xmlns="http://www.w3.org/2000/svg" xmlns:xlink="http://www.w3.org/1999/xlink" width="400" height="266.6666666666667" viewBox="0, 0, 400,266.6666666666667"><g id="svgg"><path id="path0" d="M112.370 69.301 C 107.677 69.782,103.507 71.738,100.192 75.012 L 97.856 77.319 96.129 77.316 C 91.781 77.310,86.073 81.081,82.594 86.257 C 81.457 87.950,81.021 88.374,79.851 88.928 C 72.903 92.215,68.529 99.591,68.053 108.822 L 67.887 112.044 66.713 113.118 C 56.266 122.683,56.485 139.623,67.156 147.409 L 68.881 148.668 69.481 151.185 C 73.022 166.062,87.417 175.106,103.255 172.405 C 105.510 172.020,105.823 172.045,105.592 172.591 C 105.112 173.729,103.608 179.809,103.223 182.173 C 102.366 187.432,104.631 190.467,109.684 190.828 C 114.318 191.160,116.355 189.412,121.022 181.104 C 124.562 174.802,125.073 174.134,131.013 168.052 C 134.202 164.786,137.181 161.461,138.317 159.901 C 140.141 157.393,140.272 157.272,141.016 157.419 C 158.995 160.959,176.532 151.537,176.559 138.324 C 176.562 136.467,176.594 136.374,177.707 134.939 C 184.274 126.475,182.507 112.174,174.090 105.661 L 172.699 104.585 172.526 102.748 C 171.800 95.055,166.091 87.789,158.819 85.305 C 157.552 84.872,157.325 84.669,156.380 83.125 C 153.246 78.003,147.871 74.452,141.386 73.221 C 139.658 72.893,137.773 72.308,136.198 71.611 C 131.389 69.485,126.860 68.738,121.965 69.264 C 120.142 69.460,118.218 69.492,116.536 69.354 C 115.104 69.237,113.229 69.213,112.370 69.301 M117.742 74.224 C 119.647 74.753,122.366 77.642,122.930 79.737 C 123.626 82.323,121.782 86.335,118.457 89.470 C 116.239 91.561,116.008 91.664,114.193 91.364 C 110.176 90.701,107.813 91.501,107.813 93.524 C 107.813 95.102,108.986 95.833,111.521 95.833 C 116.294 95.833,119.499 98.225,120.847 102.790 C 121.711 105.720,124.242 105.869,125.649 103.073 C 128.544 97.316,139.377 102.098,139.011 108.972 L 138.932 110.460 137.109 111.090 C 132.215 112.782,133.973 117.011,138.932 115.477 C 142.429 114.396,147.489 117.033,149.449 120.958 C 150.499 123.061,152.035 123.526,153.405 122.155 C 155.692 119.869,150.842 113.454,145.300 111.433 L 143.811 110.890 143.701 108.587 C 143.256 99.278,132.068 92.570,124.891 97.309 L 123.870 97.983 123.332 97.234 C 123.037 96.821,122.307 95.957,121.711 95.313 L 120.627 94.141 121.810 92.839 C 127.906 86.125,129.168 80.531,125.771 75.277 L 124.751 73.698 125.928 73.698 C 132.754 73.698,137.794 77.348,137.388 81.997 C 137.141 84.835,138.372 86.224,140.437 85.439 C 141.783 84.927,142.581 81.007,141.814 78.677 C 141.307 77.135,146.462 79.353,149.080 81.802 C 152.237 84.755,153.088 87.448,151.983 90.991 C 151.142 93.689,151.137 94.130,151.941 94.934 C 153.621 96.614,155.566 95.415,156.530 92.105 C 156.830 91.076,157.121 90.084,157.178 89.901 C 157.422 89.114,161.967 92.128,164.054 94.461 C 165.571 96.158,167.358 99.569,167.611 101.253 L 167.780 102.377 165.545 102.195 L 163.310 102.014 162.515 102.810 C 161.001 104.324,162.003 106.771,164.137 106.771 C 174.801 106.771,181.434 123.443,174.135 131.901 C 172.638 133.635,170.756 134.581,167.435 135.267 C 163.872 136.002,162.964 136.875,163.846 138.715 C 164.559 140.202,167.089 140.352,171.330 139.157 C 171.946 138.983,171.954 139.002,171.785 140.258 C 171.052 145.719,164.800 150.781,156.732 152.447 C 151.373 153.553,142.503 153.587,142.835 152.500 C 143.612 149.956,142.904 148.333,141.016 148.333 C 139.987 148.333,138.542 149.541,138.542 150.402 C 138.542 152.545,134.180 158.186,126.168 166.405 C 121.080 171.624,120.021 172.996,117.325 177.865 C 113.400 184.953,112.592 185.930,110.487 186.132 C 108.964 186.279,107.552 185.343,107.552 184.188 C 107.552 181.254,110.292 172.716,112.500 168.772 C 114.219 165.700,112.617 164.714,108.447 166.276 C 93.503 171.873,77.510 164.459,74.177 150.391 C 73.121 145.937,73.181 146.062,71.603 145.020 C 61.430 138.304,60.885 125.042,70.408 115.949 C 72.689 113.771,72.593 114.050,72.744 109.115 C 72.995 100.879,76.715 95.091,83.495 92.385 C 84.923 91.814,85.085 91.661,85.903 90.092 C 88.000 86.069,92.206 82.553,95.731 81.876 L 96.540 81.721 96.414 83.678 C 96.258 86.104,96.864 86.979,98.698 86.979 C 100.401 86.979,100.928 86.254,101.105 83.664 C 101.552 77.148,110.330 72.168,117.742 74.224 M282.682 85.539 C 278.957 86.886,278.759 91.927,282.360 93.714 C 285.484 95.264,288.688 93.028,288.483 89.442 C 288.307 86.354,285.553 84.501,282.682 85.539 M194.531 106.874 L 194.531 125.521 203.971 125.516 C 216.329 125.510,218.177 125.122,221.393 121.850 C 223.431 119.776,224.069 118.112,224.080 114.844 C 224.095 110.342,222.152 107.930,217.057 106.131 C 216.629 105.979,216.813 105.820,218.099 105.229 C 224.554 102.266,224.603 93.322,218.182 90.081 C 215.268 88.610,214.274 88.489,203.971 88.353 L 194.531 88.228 194.531 106.874 M210.794 94.543 C 214.049 95.013,215.365 96.321,215.365 99.089 C 215.365 102.732,213.880 103.550,206.836 103.786 L 201.823 103.954 201.823 99.113 L 201.823 94.271 205.404 94.276 C 207.373 94.279,209.799 94.399,210.794 94.543 M242.188 98.072 C 239.248 98.854,237.094 100.857,236.795 103.088 C 236.501 105.279,236.198 104.380,236.198 101.317 L 236.198 98.177 232.682 98.177 L 229.167 98.177 229.167 111.849 L 229.167 125.521 232.665 125.521 L 236.164 125.521 236.246 117.643 L 236.328 109.766 237.032 108.431 C 238.555 105.544,241.601 103.906,245.448 103.906 L 247.396 103.906 247.396 100.942 C 247.396 98.088,247.374 97.972,246.810 97.820 C 245.821 97.555,243.693 97.671,242.188 98.072 M258.333 98.064 C 256.566 98.447,253.953 99.609,252.773 100.537 C 252.110 101.058,252.083 101.180,252.083 103.646 L 252.083 106.212 253.539 105.336 C 259.959 101.470,267.631 102.747,268.014 107.746 L 268.099 108.851 263.802 108.968 C 257.646 109.136,254.700 109.930,252.155 112.109 C 248.942 114.858,248.659 120.501,251.587 123.406 C 254.930 126.721,263.104 126.800,267.354 123.557 C 268.494 122.688,268.553 122.724,268.450 124.219 L 268.359 125.521 271.829 125.521 L 275.299 125.521 275.201 115.820 C 275.107 106.539,275.077 106.042,274.505 104.312 C 272.767 99.061,265.930 96.419,258.333 98.064 M307.031 97.926 C 305.407 98.266,302.930 99.531,301.725 100.636 C 300.447 101.809,300.521 101.856,300.521 99.870 L 300.521 98.177 297.135 98.177 L 293.750 98.177 293.750 111.849 L 293.750 125.521 297.253 125.521 L 300.756 125.521 300.833 116.732 C 300.908 108.290,300.934 107.901,301.477 106.887 C 303.868 102.420,309.979 102.072,312.077 106.284 L 312.760 107.654 312.760 116.588 L 312.760 125.521 316.406 125.521 L 320.052 125.521 320.050 116.471 C 320.048 104.541,319.603 102.221,316.872 99.883 C 314.775 98.088,310.408 97.220,307.031 97.926 M280.729 111.849 L 280.729 125.521 284.375 125.521 L 288.021 125.521 288.021 111.849 L 288.021 98.177 284.375 98.177 L 280.729 98.177 280.729 111.849 M84.131 103.841 C 83.206 104.590,83.186 105.168,83.195 130.512 L 83.203 154.905 83.834 155.577 C 84.722 156.522,86.372 156.523,87.259 155.578 L 87.891 154.906 87.960 129.911 L 88.029 104.916 87.263 104.150 C 86.367 103.254,85.020 103.121,84.131 103.841 M95.553 107.182 L 94.922 107.854 94.922 129.601 L 94.922 151.347 95.685 152.004 C 96.317 152.547,96.630 152.636,97.505 152.518 C 99.630 152.233,99.479 153.999,99.479 129.417 L 99.479 107.590 98.793 107.050 C 97.803 106.271,96.353 106.331,95.553 107.182 M213.088 109.751 C 216.423 110.445,217.993 114.048,216.331 117.191 C 215.226 119.280,213.317 119.743,205.664 119.775 L 201.823 119.792 201.823 114.574 L 201.823 109.357 206.706 109.398 C 209.391 109.421,212.263 109.580,213.088 109.751 M268.130 114.733 C 267.354 121.335,257.031 124.058,257.031 117.660 C 257.031 114.378,258.854 113.340,264.684 113.304 L 268.301 113.281 268.130 114.733 M107.813 116.064 C 107.598 116.145,107.158 116.452,106.836 116.745 L 106.250 117.278 106.250 130.355 C 106.250 144.977,106.175 144.389,108.087 144.695 C 108.841 144.816,109.168 144.713,109.845 144.143 L 110.677 143.443 110.677 130.361 L 110.677 117.278 110.091 116.731 C 109.449 116.132,108.424 115.832,107.813 116.064 M73.295 122.775 L 72.656 123.414 72.656 130.469 L 72.656 137.524 73.295 138.163 C 73.737 138.604,74.224 138.802,74.870 138.802 C 75.515 138.802,76.003 138.604,76.444 138.163 L 77.083 137.524 77.083 130.469 L 77.083 123.414 76.444 122.775 C 75.574 121.905,74.165 121.905,73.295 122.775 M117.566 122.775 L 116.927 123.414 116.927 130.428 C 116.927 138.592,116.948 138.672,119.108 138.672 C 120.615 138.672,121.103 138.195,121.379 136.450 C 121.894 133.190,122.403 132.973,129.893 132.813 L 135.983 132.682 136.612 131.952 C 137.445 130.981,137.441 129.721,136.601 128.814 L 135.962 128.125 130.078 128.125 C 122.699 128.125,121.892 127.793,121.546 124.618 C 121.297 122.328,119.052 121.288,117.566 122.775 M278.122 140.820 L 278.119 148.568 277.407 147.656 C 274.890 144.436,271.129 143.145,266.875 144.041 C 254.383 146.671,253.947 168.523,266.323 171.746 C 270.389 172.805,274.874 171.673,277.152 169.012 C 278.341 167.623,278.445 167.680,278.343 169.662 L 278.255 171.355 281.576 171.355 L 284.896 171.354 284.896 152.214 L 284.896 133.073 281.510 133.073 L 278.125 133.073 278.122 140.820 M291.797 133.441 C 287.741 135.243,288.994 141.146,293.433 141.146 C 296.033 141.146,297.504 139.743,297.518 137.250 C 297.535 134.266,294.495 132.241,291.797 133.441 M203.389 135.215 C 203.143 135.792,201.202 140.874,194.909 157.422 C 193.220 161.862,191.347 166.784,190.746 168.359 L 189.654 171.224 193.431 171.296 C 195.508 171.336,197.246 171.331,197.292 171.285 C 197.338 171.238,197.891 169.565,198.520 167.567 L 199.665 163.932 207.492 163.863 L 215.319 163.795 215.736 164.905 C 215.965 165.516,216.542 167.188,217.018 168.620 L 217.884 171.224 221.700 171.354 C 225.425 171.481,225.512 171.472,225.354 170.964 C 225.265 170.677,224.342 168.216,223.302 165.495 C 222.261 162.773,219.468 155.449,217.093 149.219 C 214.719 142.988,212.502 137.188,212.167 136.328 L 211.558 134.766 207.599 134.694 C 203.697 134.623,203.637 134.630,203.389 135.215 M210.488 150.457 C 212.032 154.717,213.292 158.291,213.288 158.398 C 213.278 158.702,201.823 158.639,201.823 158.336 C 201.823 158.092,204.690 149.945,206.520 144.987 C 206.983 143.734,207.433 142.709,207.522 142.709 C 207.610 142.710,208.945 146.196,210.488 150.457 M310.807 144.237 C 297.138 148.172,297.652 168.474,311.504 171.739 C 324.128 174.716,333.869 162.145,327.801 150.708 C 324.985 145.401,317.140 142.414,310.807 144.237 M227.877 154.232 C 228.073 167.865,229.225 170.561,235.413 171.874 C 239.706 172.785,246.354 170.416,246.354 167.975 C 246.354 167.828,246.463 167.708,246.596 167.708 C 246.729 167.708,246.810 168.529,246.777 169.531 L 246.716 171.354 250.050 171.354 L 253.385 171.354 253.385 157.813 L 253.385 144.271 249.890 144.271 L 246.395 144.271 246.365 152.594 C 246.333 161.620,246.221 162.512,244.909 164.232 C 242.943 166.810,238.140 167.121,236.015 164.809 C 234.690 163.369,234.635 162.908,234.635 153.264 L 234.635 144.271 231.185 144.271 L 227.734 144.270 227.877 154.232 M290.104 157.813 L 290.104 171.354 293.490 171.354 L 296.875 171.354 296.875 157.813 L 296.875 144.271 293.490 144.271 L 290.104 144.271 290.104 157.813 M318.292 150.055 C 324.504 152.713,324.012 164.380,317.607 166.282 C 312.236 167.877,307.938 164.111,307.947 157.818 C 307.956 151.264,312.736 147.676,318.292 150.055 M274.367 150.071 C 280.168 153.082,279.535 164.251,273.449 166.272 C 267.748 168.166,262.964 162.320,264.584 155.439 C 265.706 150.674,270.482 148.053,274.367 150.071 " stroke="none" fill="#0676ea" fill-rule="evenodd"></path><path id="path1" d="M0.000 133.333 L 0.000 266.667 200.000 266.667 L 400.000 266.667 400.000 133.333 L 400.000 0.000 200.000 0.000 L 0.000 0.000 0.000 133.333 M131.611 69.774 C 132.740 70.068,134.732 70.785,136.038 71.366 C 137.512 72.023,139.546 72.654,141.406 73.034 C 148.406 74.461,154.071 78.350,156.895 83.665 C 157.253 84.340,157.687 84.724,158.327 84.931 C 165.992 87.411,172.625 95.713,172.655 102.865 L 172.661 104.297 174.237 105.554 C 182.676 112.284,184.507 127.067,177.881 134.989 C 176.879 136.188,176.823 136.346,176.818 137.984 C 176.783 151.419,161.528 160.058,141.927 157.743 L 140.234 157.543 139.468 158.654 C 137.730 161.173,135.292 163.942,130.564 168.767 C 125.264 174.177,124.558 175.110,121.214 181.120 C 116.717 189.202,114.749 190.981,110.286 190.998 C 105.340 191.017,102.615 188.178,102.947 183.352 C 103.074 181.511,104.692 174.220,105.326 172.636 C 105.474 172.265,105.289 172.257,103.461 172.557 C 91.533 174.511,79.570 169.884,73.651 161.027 C 71.473 157.769,69.010 151.861,69.010 149.896 C 69.010 149.139,68.531 148.590,66.642 147.180 C 56.493 139.607,56.151 124.003,65.906 113.697 C 67.780 111.717,67.944 111.459,67.835 110.650 C 66.795 102.880,72.236 92.729,79.481 88.922 C 81.029 88.108,81.422 87.742,82.493 86.116 C 85.705 81.238,91.532 77.327,95.894 77.123 L 97.908 77.029 99.931 75.016 C 104.186 70.783,109.709 68.713,115.614 69.139 C 118.989 69.383,119.851 69.378,122.656 69.100 C 125.459 68.822,128.972 69.086,131.611 69.774 M111.524 74.231 C 105.683 75.274,101.302 79.368,101.302 83.783 C 101.302 86.070,100.424 87.240,98.706 87.240 C 96.858 87.240,95.920 85.803,96.217 83.429 L 96.401 81.957 95.637 82.110 C 92.004 82.836,87.877 86.371,85.905 90.444 C 85.337 91.618,85.136 91.773,82.636 92.979 C 76.161 96.102,73.124 101.387,72.742 110.194 L 72.577 114.020 70.432 116.111 C 61.058 125.249,61.644 138.206,71.735 144.904 C 73.272 145.924,73.419 146.212,74.201 149.740 C 77.487 164.553,94.465 172.303,109.279 165.751 C 112.962 164.122,114.229 165.946,112.131 169.859 C 108.760 176.148,106.938 184.721,108.764 185.698 C 111.254 187.031,112.650 185.835,116.397 179.165 C 120.050 172.662,120.817 171.641,126.181 166.146 C 133.706 158.436,136.818 154.485,138.220 150.856 C 139.749 146.900,144.253 147.474,143.240 151.495 C 142.866 152.983,142.630 152.868,146.419 153.047 C 159.991 153.689,169.867 148.521,171.725 139.805 L 171.872 139.114 170.636 139.491 C 165.858 140.950,162.361 139.647,163.668 136.895 C 164.167 135.843,164.666 135.612,167.708 135.023 C 168.982 134.777,170.566 134.252,171.438 133.788 C 181.556 128.401,176.970 108.463,165.291 107.062 C 161.732 106.635,160.417 104.820,162.211 102.811 C 163.030 101.895,163.930 101.752,166.436 102.139 L 167.637 102.324 167.415 101.097 C 166.812 97.767,163.256 93.123,159.766 91.107 C 157.421 89.752,157.354 89.741,157.156 90.705 C 156.314 94.813,154.175 96.852,152.177 95.453 C 151.030 94.650,150.921 93.725,151.697 91.394 C 153.453 86.120,150.251 80.987,143.846 78.808 L 141.988 78.177 142.123 80.334 C 142.363 84.187,141.662 85.677,139.610 85.677 C 137.621 85.677,137.153 84.935,137.129 81.746 C 137.095 77.132,133.604 74.485,126.953 74.031 L 124.870 73.888 125.414 74.509 C 129.508 79.185,128.518 85.128,122.444 92.331 L 120.895 94.167 121.845 95.196 C 122.367 95.761,123.041 96.543,123.343 96.933 L 123.892 97.642 125.783 96.673 C 133.268 92.835,143.976 100.153,144.005 109.126 L 144.010 110.830 145.446 111.318 C 150.540 113.049,155.527 119.369,153.836 121.950 C 152.634 123.784,150.644 123.356,149.249 120.964 C 146.768 116.708,142.566 114.612,138.742 115.723 C 135.725 116.601,133.896 115.703,134.193 113.491 C 134.381 112.084,134.927 111.590,137.113 110.847 L 138.932 110.229 138.905 108.799 C 138.772 101.964,128.736 97.739,125.736 103.255 C 124.103 106.258,121.714 105.903,120.578 102.489 C 119.129 98.134,116.771 96.368,112.054 96.105 C 108.846 95.926,108.015 95.531,107.732 94.055 C 107.267 91.622,109.491 90.556,113.800 91.146 L 115.906 91.434 117.263 90.357 C 126.782 82.802,123.001 72.181,111.524 74.231 M285.855 85.433 C 290.742 87.280,289.177 94.488,283.951 94.206 C 281.117 94.053,279.529 92.209,279.739 89.313 C 279.964 86.191,282.912 84.321,285.855 85.433 M214.714 88.675 C 224.109 90.656,226.435 102.279,218.071 105.454 L 216.843 105.920 218.187 106.366 C 226.347 109.076,226.460 120.466,218.364 124.255 C 215.497 125.596,213.451 125.797,203.395 125.720 L 194.429 125.651 194.363 108.203 C 194.327 98.607,194.361 90.199,194.439 89.518 L 194.580 88.281 203.735 88.286 C 210.797 88.289,213.308 88.378,214.714 88.675 M201.953 99.062 L 201.953 103.646 206.019 103.646 C 213.409 103.646,215.219 102.752,215.230 99.096 C 215.240 95.575,213.614 94.706,206.771 94.572 L 201.953 94.478 201.953 99.062 M266.419 97.765 C 270.888 98.562,273.987 101.266,274.906 105.170 C 275.161 106.251,275.253 109.174,275.256 116.211 L 275.260 125.781 271.745 125.781 L 268.229 125.781 268.229 124.475 L 268.229 123.168 266.894 124.087 C 261.276 127.951,251.212 126.013,249.760 120.787 C 247.695 113.351,253.104 108.854,264.115 108.854 L 268.028 108.854 267.843 107.621 C 267.343 104.286,265.404 103.192,260.451 103.449 C 257.641 103.595,255.260 104.350,253.253 105.731 L 252.083 106.535 252.083 103.655 L 252.083 100.775 253.451 99.919 C 257.075 97.651,261.584 96.902,266.419 97.765 M312.063 97.647 C 315.447 98.201,318.180 100.243,319.319 103.067 C 319.907 104.525,319.921 104.784,319.999 115.169 L 320.079 125.781 316.420 125.781 L 312.760 125.781 312.754 117.383 C 312.747 108.523,312.620 107.259,311.577 105.671 C 309.486 102.490,303.967 102.928,301.902 106.439 L 301.172 107.682 301.042 116.667 L 300.911 125.651 297.331 125.723 L 293.750 125.796 293.750 111.856 L 293.750 97.917 297.266 97.917 L 300.781 97.917 300.781 99.640 L 300.781 101.363 301.856 100.392 C 304.356 98.133,308.397 97.047,312.063 97.647 M247.599 100.846 L 247.673 103.906 246.297 103.911 C 242.109 103.925,238.968 105.457,237.295 108.304 L 236.589 109.505 236.458 117.578 L 236.328 125.651 232.682 125.651 L 229.036 125.651 229.036 111.849 L 229.036 98.047 232.682 98.047 L 236.328 98.047 236.473 100.651 C 236.553 102.083,236.641 103.031,236.668 102.757 C 236.962 99.860,240.664 97.642,245.052 97.734 L 247.526 97.786 247.599 100.846 M288.021 111.856 L 288.021 125.796 284.310 125.723 L 280.599 125.651 280.531 112.109 C 280.494 104.661,280.520 98.421,280.588 98.242 C 280.680 98.003,281.684 97.917,284.367 97.917 L 288.021 97.917 288.021 111.856 M86.724 103.518 C 88.060 104.209,88.021 103.416,88.021 129.951 L 88.021 154.988 87.260 155.749 C 86.209 156.800,84.885 156.800,83.834 155.749 L 83.073 154.988 83.079 129.903 C 83.084 106.527,83.115 104.780,83.534 104.266 C 84.476 103.110,85.480 102.875,86.724 103.518 M98.978 107.011 L 99.740 107.772 99.740 129.290 C 99.740 153.178,99.824 152.018,98.036 152.608 C 97.312 152.847,96.932 152.844,96.328 152.594 C 94.703 151.920,94.792 153.249,94.792 129.479 L 94.792 107.772 95.553 107.011 C 96.116 106.448,96.561 106.250,97.266 106.250 C 97.970 106.250,98.415 106.448,98.978 107.011 M201.953 114.590 L 201.953 119.580 207.552 119.484 C 215.387 119.349,216.797 118.602,216.797 114.583 C 216.797 110.579,215.323 109.798,207.552 109.683 L 201.953 109.600 201.953 114.590 M264.063 113.527 C 258.773 113.734,257.222 114.615,257.180 117.433 C 257.109 122.181,264.781 122.108,267.239 117.337 C 267.681 116.479,268.258 113.177,267.940 113.330 C 267.884 113.357,266.139 113.445,264.063 113.527 M110.176 116.647 L 110.938 117.408 110.938 130.299 L 110.938 143.189 110.263 143.990 C 109.727 144.628,109.386 144.792,108.592 144.792 C 105.905 144.792,105.990 145.268,105.990 130.201 L 105.990 117.408 106.751 116.647 C 107.314 116.083,107.759 115.885,108.464 115.885 C 109.168 115.885,109.613 116.083,110.176 116.647 M75.882 122.124 C 77.218 122.632,77.344 123.350,77.344 130.469 C 77.344 138.454,76.946 139.531,74.217 138.932 C 72.523 138.560,72.398 137.965,72.397 130.253 L 72.396 123.397 73.157 122.636 C 73.952 121.842,74.746 121.692,75.882 122.124 M120.853 122.636 C 121.415 123.198,121.615 123.645,121.615 124.342 C 121.615 127.373,122.394 127.712,129.736 127.865 L 135.981 127.995 136.769 128.877 C 137.431 129.618,137.533 129.907,137.406 130.684 C 137.094 132.611,136.906 132.666,130.267 132.813 C 123.106 132.970,121.615 133.562,121.615 136.249 C 121.615 138.984,118.059 140.010,116.958 137.593 C 116.529 136.653,116.567 124.040,117.001 123.182 C 117.732 121.737,119.679 121.462,120.853 122.636 M285.026 152.344 L 285.026 171.484 281.576 171.557 L 278.125 171.630 278.125 169.883 L 278.125 168.135 277.233 169.177 C 273.572 173.455,265.379 173.315,261.081 168.902 C 255.810 163.488,255.893 152.204,261.244 146.853 C 265.340 142.758,272.946 142.636,276.660 146.607 L 277.865 147.894 277.865 140.476 L 277.865 133.058 281.445 133.131 L 285.026 133.203 285.026 152.344 M296.044 133.818 C 299.360 136.180,297.558 141.418,293.435 141.402 C 289.209 141.386,287.621 136.000,291.146 133.638 C 292.358 132.826,294.775 132.915,296.044 133.818 M215.617 144.857 C 217.814 150.622,220.999 158.957,222.696 163.380 C 224.393 167.803,225.781 171.465,225.781 171.518 C 225.781 171.571,223.994 171.614,221.810 171.614 L 217.839 171.613 216.555 167.838 L 215.272 164.063 213.561 164.030 C 207.839 163.921,200.015 163.961,199.877 164.099 C 199.788 164.188,199.217 165.886,198.608 167.873 L 197.502 171.484 193.412 171.556 L 189.322 171.628 189.986 169.863 C 190.350 168.893,191.928 164.759,193.492 160.677 C 195.056 156.595,197.694 149.681,199.354 145.313 C 201.015 140.944,202.629 136.696,202.943 135.872 L 203.513 134.375 207.568 134.375 L 211.623 134.375 215.617 144.857 M206.585 145.260 C 203.739 153.135,202.083 157.848,202.083 158.073 C 202.083 158.238,204.117 158.333,207.645 158.333 L 213.207 158.333 210.441 150.799 C 208.919 146.655,207.613 143.203,207.539 143.129 C 207.464 143.055,207.035 144.014,206.585 145.260 M318.417 143.900 C 333.629 147.043,333.484 168.810,318.229 172.035 C 308.854 174.017,300.781 167.437,300.781 157.813 C 300.781 148.088,308.648 141.883,318.417 143.900 M234.699 153.255 C 234.795 163.210,234.831 163.462,236.361 164.892 C 238.341 166.744,242.602 166.563,244.453 164.549 C 246.119 162.738,246.216 162.112,246.308 152.669 L 246.392 144.010 249.888 144.010 L 253.385 144.010 253.424 157.422 C 253.446 164.798,253.475 170.980,253.490 171.159 C 253.509 171.401,252.630 171.503,250.065 171.557 L 246.615 171.630 246.615 169.946 L 246.615 168.263 245.239 169.638 C 240.697 174.180,231.919 172.878,229.054 167.237 C 227.789 164.747,227.604 162.955,227.604 153.206 L 227.604 143.996 231.108 144.068 L 234.611 144.141 234.699 153.255 M297.135 157.813 L 297.135 171.615 293.490 171.615 L 289.844 171.615 289.844 157.813 L 289.844 144.010 293.490 144.010 L 297.135 144.010 297.135 157.813 M313.411 149.723 C 306.990 151.286,306.044 162.597,312.077 165.675 C 316.488 167.925,321.489 165.254,322.399 160.161 C 323.566 153.638,319.019 148.358,313.411 149.723 M268.620 150.227 C 262.781 152.894,263.271 164.425,269.296 166.153 C 274.412 167.620,277.995 164.237,277.995 157.937 C 277.995 151.582,273.588 147.958,268.620 150.227 " stroke="none" fill="#ffffff" fill-rule="evenodd"></path><path id="path2" d="M261.919 97.585 C 262.387 97.643,263.090 97.641,263.481 97.582 C 263.873 97.522,263.490 97.475,262.630 97.477 C 261.771 97.478,261.451 97.527,261.919 97.585 M236.149 100.793 C 236.194 102.362,236.311 103.646,236.409 103.646 C 236.639 103.647,236.483 98.368,236.246 98.124 C 236.148 98.023,236.104 99.224,236.149 100.793 M260.615 103.309 C 260.939 103.371,261.408 103.369,261.657 103.304 C 261.906 103.239,261.641 103.188,261.068 103.191 C 260.495 103.194,260.291 103.247,260.615 103.309 M206.576 109.566 C 207.256 109.620,208.369 109.620,209.049 109.566 C 209.730 109.513,209.173 109.469,207.813 109.469 C 206.452 109.469,205.895 109.513,206.576 109.566 M236.311 119.010 C 236.311 122.663,236.348 124.157,236.393 122.331 C 236.437 120.505,236.437 117.516,236.393 115.690 C 236.348 113.864,236.311 115.358,236.311 119.010 M99.540 120.313 C 99.540 120.814,99.593 121.019,99.659 120.768 C 99.724 120.518,99.724 120.107,99.659 119.857 C 99.593 119.606,99.540 119.811,99.540 120.313 M99.540 122.135 C 99.540 122.637,99.593 122.842,99.659 122.591 C 99.724 122.340,99.724 121.930,99.659 121.680 C 99.593 121.429,99.540 121.634,99.540 122.135 M228.984 123.698 C 228.984 124.486,229.033 124.808,229.093 124.414 C 229.152 124.020,229.152 123.376,229.093 122.982 C 229.033 122.588,228.984 122.910,228.984 123.698 M77.197 130.469 C 77.197 134.121,77.233 135.615,77.278 133.789 C 77.323 131.963,77.323 128.975,77.278 127.148 C 77.233 125.322,77.197 126.816,77.197 130.469 M203.320 125.709 C 203.786 125.767,204.548 125.767,205.013 125.709 C 205.479 125.651,205.098 125.604,204.167 125.604 C 203.236 125.604,202.855 125.651,203.320 125.709 M72.506 131.771 C 72.506 134.707,72.544 135.908,72.590 134.440 C 72.636 132.972,72.636 130.570,72.590 129.102 C 72.544 127.633,72.506 128.835,72.506 131.771 M127.163 128.059 C 128.710 128.105,131.171 128.105,132.631 128.059 C 134.092 128.012,132.826 127.975,129.818 127.975 C 126.810 127.975,125.615 128.013,127.163 128.059 M205.262 134.568 C 206.223 134.618,207.863 134.618,208.908 134.569 C 209.953 134.519,209.167 134.478,207.161 134.478 C 205.156 134.477,204.302 134.518,205.262 134.568 M229.492 144.204 C 230.459 144.254,232.041 144.254,233.008 144.204 C 233.975 144.153,233.184 144.112,231.250 144.112 C 229.316 144.112,228.525 144.153,229.492 144.204 M248.242 144.204 C 249.209 144.254,250.791 144.254,251.758 144.204 C 252.725 144.153,251.934 144.112,250.000 144.112 C 248.066 144.112,247.275 144.153,248.242 144.204 M289.963 144.336 C 289.895 144.515,289.870 150.697,289.909 158.073 L 289.979 171.484 290.041 157.885 L 290.104 144.286 293.555 144.205 L 297.005 144.124 293.547 144.067 C 290.976 144.025,290.056 144.094,289.963 144.336 M307.887 157.943 C 307.889 158.659,307.940 158.921,307.999 158.525 C 308.059 158.129,308.058 157.543,307.996 157.223 C 307.934 156.903,307.885 157.227,307.887 157.943 M79.167 160.238 C 79.167 160.283,79.548 160.663,80.013 161.084 L 80.859 161.849 80.095 161.003 C 79.382 160.214,79.167 160.037,79.167 160.238 M127.207 165.169 L 125.391 167.057 127.279 165.241 C 129.032 163.555,129.286 163.281,129.095 163.281 C 129.055 163.281,128.205 164.131,127.207 165.169 M314.909 166.586 C 315.160 166.651,315.570 166.651,315.820 166.586 C 316.071 166.520,315.866 166.467,315.365 166.467 C 314.863 166.467,314.658 166.520,314.909 166.586 M127.458 171.680 L 126.693 172.526 127.539 171.761 C 128.328 171.048,128.505 170.833,128.304 170.833 C 128.259 170.833,127.878 171.214,127.458 171.680 M314.648 172.315 C 314.899 172.380,315.309 172.380,315.560 172.315 C 315.811 172.249,315.605 172.196,315.104 172.196 C 314.603 172.196,314.398 172.249,314.648 172.315 M109.701 191.065 C 109.951 191.130,110.361 191.130,110.612 191.065 C 110.863 190.999,110.658 190.946,110.156 190.946 C 109.655 190.946,109.450 190.999,109.701 191.065 " stroke="none" fill="#96c8f6" fill-rule="evenodd"></path><path id="path3" d="M152.604 78.467 C 152.604 78.512,152.985 78.893,153.451 79.313 L 154.297 80.078 153.532 79.232 C 152.819 78.443,152.604 78.266,152.604 78.467 M85.010 82.878 L 84.245 83.724 85.091 82.959 C 85.557 82.538,85.938 82.158,85.938 82.113 C 85.938 81.912,85.723 82.089,85.010 82.878 M194.337 90.495 C 194.339 91.068,194.393 91.271,194.455 90.947 C 194.517 90.624,194.515 90.155,194.450 89.906 C 194.385 89.657,194.334 89.922,194.337 90.495 M111.133 91.069 C 111.455 91.131,111.982 91.131,112.305 91.069 C 112.627 91.007,112.363 90.956,111.719 90.956 C 111.074 90.956,110.811 91.007,111.133 91.069 M74.465 92.643 L 73.568 93.620 74.544 92.722 C 75.081 92.229,75.521 91.789,75.521 91.746 C 75.521 91.547,75.300 91.734,74.465 92.643 M201.906 96.875 C 201.906 97.806,201.954 98.187,202.011 97.721 C 202.069 97.256,202.069 96.494,202.011 96.029 C 201.954 95.563,201.906 95.944,201.906 96.875 M111.133 96.017 C 111.455 96.079,111.982 96.079,112.305 96.017 C 112.627 95.955,112.363 95.904,111.719 95.904 C 111.074 95.904,110.811 95.955,111.133 96.017 M222.988 97.917 C 222.988 98.561,223.038 98.825,223.100 98.503 C 223.163 98.180,223.163 97.653,223.100 97.331 C 223.038 97.008,222.988 97.272,222.988 97.917 M309.570 97.580 C 309.893 97.642,310.420 97.642,310.742 97.580 C 311.064 97.518,310.801 97.467,310.156 97.467 C 309.512 97.467,309.248 97.518,309.570 97.580 M194.345 98.828 C 194.347 99.544,194.398 99.806,194.458 99.410 C 194.518 99.015,194.516 98.429,194.454 98.108 C 194.392 97.788,194.343 98.112,194.345 98.828 M247.395 100.858 L 247.524 104.036 247.599 101.064 C 247.640 99.429,247.582 97.998,247.470 97.886 C 247.358 97.773,247.324 99.110,247.395 100.858 M230.794 98.110 C 231.761 98.160,233.343 98.160,234.310 98.110 C 235.277 98.060,234.486 98.019,232.552 98.019 C 230.618 98.019,229.827 98.060,230.794 98.110 M280.588 98.242 C 280.520 98.421,280.494 104.661,280.531 112.109 L 280.599 125.651 284.245 125.662 L 287.891 125.672 284.310 125.590 L 280.729 125.507 280.729 111.849 L 280.729 98.191 284.440 98.111 L 288.151 98.031 284.432 97.974 C 281.653 97.931,280.681 97.999,280.588 98.242 M295.366 98.110 C 296.327 98.159,297.967 98.160,299.012 98.110 C 300.057 98.061,299.271 98.020,297.266 98.019 C 295.260 98.019,294.406 98.060,295.366 98.110 M229.025 109.115 C 229.025 115.059,229.059 117.490,229.101 114.518 C 229.143 111.546,229.143 106.683,229.101 103.711 C 229.059 100.739,229.025 103.171,229.025 109.115 M201.901 102.083 C 201.901 102.871,201.950 103.193,202.009 102.799 C 202.069 102.406,202.069 101.761,202.009 101.367 C 201.950 100.973,201.901 101.296,201.901 102.083 M163.867 102.002 C 164.118 102.068,164.528 102.068,164.779 102.002 C 165.029 101.937,164.824 101.883,164.323 101.883 C 163.822 101.883,163.617 101.937,163.867 102.002 M194.362 104.427 C 194.362 105.645,194.407 106.143,194.462 105.534 C 194.516 104.925,194.516 103.929,194.462 103.320 C 194.407 102.712,194.362 103.210,194.362 104.427 M175.391 106.771 C 175.950 107.344,176.466 107.813,176.538 107.813 C 176.610 107.813,176.210 107.344,175.651 106.771 C 175.092 106.198,174.575 105.729,174.504 105.729 C 174.432 105.729,174.831 106.198,175.391 106.771 M67.769 109.375 C 67.769 109.876,67.822 110.081,67.888 109.831 C 67.953 109.580,67.953 109.170,67.888 108.919 C 67.822 108.669,67.769 108.874,67.769 109.375 M194.331 109.375 C 194.331 109.876,194.385 110.081,194.450 109.831 C 194.516 109.580,194.516 109.170,194.450 108.919 C 194.385 108.669,194.331 108.874,194.331 109.375 M171.875 110.286 C 172.361 110.788,172.817 111.198,172.889 111.198 C 172.960 111.198,172.621 110.788,172.135 110.286 C 171.650 109.785,171.193 109.375,171.122 109.375 C 171.050 109.375,171.389 109.785,171.875 110.286 M202.669 109.565 C 203.206 109.621,204.085 109.621,204.622 109.565 C 205.160 109.509,204.720 109.463,203.646 109.463 C 202.572 109.463,202.132 109.509,202.669 109.565 M300.842 117.896 L 300.781 125.506 297.201 125.587 L 293.620 125.667 297.209 125.724 C 299.902 125.767,300.829 125.699,300.924 125.452 C 300.993 125.272,301.017 121.785,300.977 117.705 L 300.903 110.286 300.842 117.896 M201.889 113.672 C 201.891 114.245,201.945 114.449,202.007 114.125 C 202.069 113.801,202.067 113.332,202.002 113.083 C 201.937 112.834,201.886 113.099,201.889 113.672 M263.226 113.474 C 264.127 113.525,265.533 113.525,266.351 113.473 C 267.169 113.422,266.432 113.380,264.714 113.381 C 262.995 113.381,262.326 113.423,263.226 113.474 M224.290 114.844 C 224.290 115.488,224.340 115.752,224.403 115.430 C 224.465 115.107,224.465 114.580,224.403 114.258 C 224.340 113.936,224.290 114.199,224.290 114.844 M201.894 116.927 C 201.894 117.572,201.945 117.835,202.007 117.513 C 202.069 117.191,202.069 116.663,202.007 116.341 C 201.945 116.019,201.894 116.283,201.894 116.927 M194.345 121.745 C 194.347 122.461,194.398 122.723,194.458 122.327 C 194.518 121.931,194.516 121.345,194.454 121.025 C 194.392 120.705,194.343 121.029,194.345 121.745 M194.498 125.593 C 194.610 125.704,196.509 125.762,198.718 125.722 L 202.734 125.649 198.515 125.520 C 196.194 125.449,194.387 125.482,194.498 125.593 M230.783 125.714 C 231.743 125.764,233.384 125.764,234.429 125.714 C 235.473 125.665,234.688 125.624,232.682 125.624 C 230.677 125.623,229.822 125.664,230.783 125.714 M269.845 125.714 C 270.806 125.764,272.447 125.764,273.491 125.714 C 274.536 125.665,273.750 125.624,271.745 125.624 C 269.740 125.623,268.885 125.664,269.845 125.714 M314.518 125.714 C 315.557 125.764,317.256 125.764,318.294 125.714 C 319.333 125.665,318.483 125.624,316.406 125.624 C 314.329 125.624,313.480 125.665,314.518 125.714 M285.019 152.344 C 285.019 162.871,285.052 167.178,285.091 161.914 C 285.130 156.650,285.130 148.037,285.091 142.773 C 285.052 137.510,285.019 141.816,285.019 152.344 M64.323 145.134 C 64.323 145.178,64.704 145.559,65.169 145.980 L 66.016 146.745 65.251 145.898 C 64.538 145.110,64.323 144.932,64.323 145.134 M270.898 149.659 C 271.149 149.724,271.559 149.724,271.810 149.659 C 272.061 149.593,271.855 149.540,271.354 149.540 C 270.853 149.540,270.648 149.593,270.898 149.659 M264.401 158.073 C 264.401 158.861,264.450 159.183,264.509 158.789 C 264.569 158.395,264.569 157.751,264.509 157.357 C 264.450 156.963,264.401 157.285,264.401 158.073 M212.690 163.990 C 213.152 164.048,213.972 164.049,214.512 163.992 C 215.053 163.936,214.674 163.889,213.672 163.888 C 212.669 163.886,212.227 163.933,212.690 163.990 M239.648 166.325 C 239.899 166.391,240.309 166.391,240.560 166.325 C 240.811 166.260,240.605 166.206,240.104 166.206 C 239.603 166.206,239.398 166.260,239.648 166.325 M237.174 172.324 C 237.640 172.382,238.402 172.382,238.867 172.324 C 239.333 172.266,238.952 172.219,238.021 172.219 C 237.090 172.219,236.709 172.266,237.174 172.324 " stroke="none" fill="#c9e5fb" fill-rule="evenodd"></path><path id="path4" d="M114.521 69.195 C 114.845 69.257,115.314 69.255,115.563 69.189 C 115.812 69.124,115.547 69.073,114.974 69.076 C 114.401 69.079,114.197 69.132,114.521 69.195 M113.997 73.882 C 114.320 73.944,114.847 73.944,115.169 73.882 C 115.492 73.820,115.228 73.769,114.583 73.769 C 113.939 73.769,113.675 73.820,113.997 73.882 M97.135 77.083 L 95.964 77.266 97.055 77.305 C 97.655 77.326,98.219 77.227,98.307 77.083 C 98.396 76.940,98.432 76.841,98.388 76.862 C 98.344 76.884,97.780 76.983,97.135 77.083 M122.977 80.990 C 122.977 81.491,123.031 81.696,123.096 81.445 C 123.162 81.195,123.162 80.785,123.096 80.534 C 123.031 80.283,122.977 80.488,122.977 80.990 M101.116 83.724 C 101.118 84.440,101.169 84.702,101.229 84.306 C 101.288 83.910,101.287 83.325,101.225 83.004 C 101.163 82.684,101.114 83.008,101.116 83.724 M152.409 88.411 C 152.412 88.984,152.466 89.188,152.528 88.864 C 152.590 88.540,152.588 88.071,152.523 87.822 C 152.457 87.574,152.407 87.839,152.409 88.411 M288.602 89.583 C 288.602 90.085,288.656 90.290,288.721 90.039 C 288.787 89.788,288.787 89.378,288.721 89.128 C 288.656 88.877,288.602 89.082,288.602 89.583 M203.711 94.464 C 204.821 94.513,206.637 94.513,207.747 94.464 C 208.857 94.416,207.949 94.376,205.729 94.376 C 203.509 94.376,202.601 94.416,203.711 94.464 M77.590 96.289 L 76.693 97.266 77.669 96.368 C 78.206 95.875,78.646 95.435,78.646 95.392 C 78.646 95.193,78.425 95.380,77.590 96.289 M300.556 99.805 C 300.537 100.771,300.610 101.563,300.718 101.563 C 300.826 101.563,300.880 101.006,300.837 100.326 C 300.702 98.186,300.593 97.983,300.556 99.805 M129.886 100.445 C 130.210 100.507,130.679 100.505,130.928 100.439 C 131.176 100.374,130.911 100.323,130.339 100.326 C 129.766 100.329,129.562 100.382,129.886 100.445 M135.417 102.425 C 135.417 102.470,135.798 102.851,136.263 103.272 L 137.109 104.036 136.345 103.190 C 135.632 102.401,135.417 102.224,135.417 102.425 M202.930 103.837 C 203.610 103.891,204.723 103.891,205.404 103.837 C 206.084 103.784,205.527 103.740,204.167 103.740 C 202.806 103.740,202.249 103.784,202.930 103.837 M83.139 107.422 C 83.141 107.995,83.195 108.199,83.257 107.875 C 83.319 107.551,83.317 107.082,83.252 106.833 C 83.187 106.584,83.136 106.849,83.139 107.422 M143.821 109.115 C 143.821 109.759,143.872 110.023,143.934 109.701 C 143.996 109.378,143.996 108.851,143.934 108.529 C 143.872 108.206,143.821 108.470,143.821 109.115 M99.568 110.286 C 99.569 111.432,99.615 111.869,99.670 111.256 C 99.725 110.644,99.724 109.706,99.668 109.173 C 99.613 108.639,99.567 109.141,99.568 110.286 M236.264 111.589 C 236.266 112.161,236.320 112.365,236.382 112.041 C 236.444 111.717,236.442 111.249,236.377 111.000 C 236.312 110.751,236.261 111.016,236.264 111.589 M66.132 113.477 L 65.234 114.453 66.211 113.556 C 66.748 113.062,67.188 112.623,67.188 112.579 C 67.188 112.380,66.967 112.568,66.132 113.477 M99.550 113.542 C 99.550 114.186,99.601 114.450,99.663 114.128 C 99.725 113.805,99.725 113.278,99.663 112.956 C 99.601 112.633,99.550 112.897,99.550 113.542 M99.540 115.625 C 99.540 116.126,99.593 116.331,99.659 116.081 C 99.724 115.830,99.724 115.420,99.659 115.169 C 99.593 114.919,99.540 115.124,99.540 115.625 M140.303 115.288 C 140.626 115.351,141.095 115.348,141.344 115.283 C 141.593 115.218,141.328 115.167,140.755 115.170 C 140.182 115.173,139.979 115.226,140.303 115.288 M99.560 118.099 C 99.561 118.958,99.610 119.279,99.668 118.810 C 99.726 118.342,99.725 117.639,99.665 117.248 C 99.606 116.857,99.558 117.240,99.560 118.099 M106.110 130.339 C 106.110 137.357,106.144 140.190,106.185 136.636 C 106.226 133.081,106.226 127.339,106.185 123.875 C 106.144 120.412,106.110 123.320,106.110 130.339 M110.797 130.208 C 110.797 137.012,110.831 139.795,110.872 136.393 C 110.913 132.992,110.913 127.425,110.872 124.023 C 110.831 120.622,110.797 123.405,110.797 130.208 M203.841 119.725 C 205.023 119.773,206.956 119.773,208.138 119.725 C 209.320 119.677,208.353 119.637,205.990 119.637 C 203.626 119.637,202.660 119.677,203.841 119.725 M181.831 122.917 C 181.831 123.418,181.885 123.623,181.950 123.372 C 182.016 123.122,182.016 122.712,181.950 122.461 C 181.885 122.210,181.831 122.415,181.831 122.917 M177.144 123.177 C 177.144 123.678,177.197 123.883,177.263 123.633 C 177.328 123.382,177.328 122.972,177.263 122.721 C 177.197 122.471,177.144 122.676,177.144 123.177 M99.580 126.042 C 99.580 127.832,99.621 128.564,99.672 127.669 C 99.723 126.774,99.723 125.309,99.672 124.414 C 99.621 123.519,99.580 124.251,99.580 126.042 M268.304 124.089 C 268.306 124.805,268.356 125.067,268.416 124.671 C 268.476 124.275,268.474 123.689,268.412 123.369 C 268.351 123.049,268.302 123.372,268.304 124.089 M72.462 124.870 C 72.464 125.443,72.518 125.646,72.580 125.322 C 72.642 124.999,72.640 124.530,72.575 124.281 C 72.510 124.032,72.459 124.297,72.462 124.870 M116.780 130.339 C 116.779 133.919,116.816 135.420,116.861 133.674 C 116.906 131.928,116.906 128.998,116.861 127.164 C 116.817 125.329,116.780 126.758,116.780 130.339 M83.133 125.000 C 83.133 125.501,83.187 125.706,83.252 125.456 C 83.318 125.205,83.318 124.795,83.252 124.544 C 83.187 124.294,83.133 124.499,83.133 125.000 M207.096 125.713 C 207.920 125.765,209.268 125.765,210.091 125.713 C 210.915 125.662,210.241 125.619,208.594 125.619 C 206.947 125.619,206.273 125.662,207.096 125.713 M99.545 130.339 C 99.548 130.911,99.601 131.115,99.663 130.791 C 99.726 130.467,99.723 129.999,99.658 129.750 C 99.593 129.501,99.542 129.766,99.545 130.339 M173.551 132.357 L 172.786 133.203 173.633 132.438 C 174.098 132.018,174.479 131.637,174.479 131.592 C 174.479 131.391,174.264 131.568,173.551 132.357 M99.580 136.458 C 99.580 138.249,99.621 138.981,99.672 138.086 C 99.723 137.191,99.723 135.726,99.672 134.831 C 99.621 133.936,99.580 134.668,99.580 136.458 M277.979 140.495 C 277.979 144.505,278.015 146.109,278.059 144.060 C 278.103 142.010,278.103 138.729,278.059 136.768 C 278.015 134.807,277.979 136.484,277.979 140.495 M293.034 141.325 C 293.285 141.391,293.695 141.391,293.945 141.325 C 294.196 141.260,293.991 141.206,293.490 141.206 C 292.988 141.206,292.783 141.260,293.034 141.325 M99.586 145.964 C 99.585 148.398,99.625 149.430,99.673 148.255 C 99.721 147.080,99.721 145.088,99.673 143.828 C 99.625 142.568,99.586 143.529,99.586 145.964 M296.938 157.740 L 296.875 171.339 293.424 171.420 L 289.974 171.501 293.433 171.558 C 296.003 171.600,296.923 171.531,297.016 171.289 C 297.085 171.110,297.109 164.928,297.071 157.552 L 297.000 144.141 296.938 157.740 M227.721 153.125 C 227.721 157.923,227.756 159.886,227.799 157.487 C 227.842 155.088,227.842 151.162,227.799 148.763 C 227.756 146.364,227.721 148.327,227.721 153.125 M325.000 147.217 C 325.000 147.262,325.381 147.643,325.846 148.063 L 326.693 148.828 325.928 147.982 C 325.215 147.193,325.000 147.016,325.000 147.217 M147.461 153.315 C 147.998 153.371,148.877 153.371,149.414 153.315 C 149.951 153.259,149.512 153.213,148.438 153.213 C 147.363 153.213,146.924 153.259,147.461 153.315 M145.508 157.996 C 145.830 158.058,146.357 158.058,146.680 157.996 C 147.002 157.934,146.738 157.883,146.094 157.883 C 145.449 157.883,145.186 157.934,145.508 157.996 M150.459 157.997 C 150.783 158.059,151.251 158.057,151.500 157.991 C 151.749 157.926,151.484 157.875,150.911 157.878 C 150.339 157.881,150.135 157.934,150.459 157.997 M204.622 158.528 C 206.234 158.573,208.870 158.573,210.482 158.528 C 212.093 158.482,210.775 158.445,207.552 158.445 C 204.329 158.445,203.011 158.482,204.622 158.528 M124.079 168.294 L 122.786 169.661 124.154 168.369 C 124.906 167.658,125.521 167.043,125.521 167.002 C 125.521 166.808,125.280 167.024,124.079 168.294 M130.729 168.359 C 130.097 169.004,129.638 169.531,129.709 169.531 C 129.781 169.531,130.357 169.004,130.990 168.359 C 131.622 167.715,132.081 167.188,132.009 167.188 C 131.938 167.188,131.362 167.715,130.729 168.359 M304.167 167.529 C 304.167 167.574,304.548 167.955,305.013 168.376 L 305.859 169.141 305.095 168.294 C 304.382 167.505,304.167 167.328,304.167 167.529 M246.551 168.359 C 246.619 168.717,246.720 169.010,246.775 169.010 C 246.830 169.010,246.875 168.717,246.875 168.359 C 246.875 168.001,246.774 167.708,246.651 167.708 C 246.527 167.708,246.482 168.001,246.551 168.359 M278.208 169.531 C 278.208 170.462,278.256 170.843,278.313 170.378 C 278.371 169.912,278.371 169.150,278.313 168.685 C 278.256 168.219,278.208 168.600,278.208 169.531 M217.937 171.427 C 218.049 171.539,219.772 171.597,221.765 171.556 L 225.391 171.483 221.562 171.353 C 219.456 171.282,217.824 171.315,217.937 171.427 M191.471 171.548 C 192.581 171.597,194.398 171.597,195.508 171.548 C 196.618 171.499,195.710 171.459,193.490 171.459 C 191.270 171.459,190.361 171.499,191.471 171.548 M248.242 171.547 C 249.209 171.597,250.791 171.597,251.758 171.547 C 252.725 171.497,251.934 171.456,250.000 171.456 C 248.066 171.456,247.275 171.497,248.242 171.547 M279.753 171.547 C 280.719 171.597,282.301 171.597,283.268 171.547 C 284.235 171.497,283.444 171.456,281.510 171.456 C 279.577 171.456,278.786 171.497,279.753 171.547 M95.638 172.843 C 96.032 172.902,96.676 172.902,97.070 172.843 C 97.464 172.783,97.142 172.734,96.354 172.734 C 95.566 172.734,95.244 172.783,95.638 172.843 M98.763 172.836 C 99.014 172.901,99.424 172.901,99.674 172.836 C 99.925 172.770,99.720 172.717,99.219 172.717 C 98.717 172.717,98.512 172.770,98.763 172.836 " stroke="none" fill="#7cb4f4" fill-rule="evenodd"></path></g></svg>